<?xml version="1.0" standalone="no"?>
<!DOCTYPE svg PUBLIC "-//W3C//DTD SVG 20010904//EN"
 "http://www.w3.org/TR/2001/REC-SVG-20010904/DTD/svg10.dtd">
<svg version="1.0" xmlns="http://www.w3.org/2000/svg"
 width="500.000000pt" height="500.000000pt" viewBox="0 0 500.000000 500.000000"
 preserveAspectRatio="xMidYMid meet">

<g transform="translate(0.000000,500.000000) scale(0.100000,-0.100000)"
fill="#000000" stroke="none">
<path d="M3210 4664 c-172 -51 -263 -108 -425 -265 -134 -130 -190 -202 -274
-354 -59 -107 -60 -112 -50 -150 15 -53 6 -142 -19 -191 -34 -66 -111 -124
-165 -124 -13 0 -32 -10 -43 -21 -66 -75 -195 -76 -289 -5 -17 13 -57 29 -89
36 -77 16 -135 41 -177 77 -19 16 -53 35 -76 41 -45 13 -99 66 -109 108 -4 14
-4 48 0 77 18 153 26 191 50 240 14 30 26 56 26 59 0 8 -72 36 -106 42 -88 14
-232 -55 -295 -142 -64 -91 -84 -165 -83 -317 1 -117 4 -140 31 -225 33 -103
60 -174 99 -260 l24 -55 213 3 c181 3 229 1 327 -17 279 -50 528 -172 693
-338 77 -79 105 -115 151 -198 60 -106 76 -179 76 -335 0 -127 -2 -146 -28
-218 -191 -538 -988 -819 -1677 -591 -300 100 -545 295 -650 520 -14 30 -23
43 -20 29 13 -55 89 -194 144 -262 111 -141 242 -242 416 -324 186 -88 345
-123 585 -131 104 -4 168 -10 172 -17 14 -21 8 -135 -12 -218 -10 -46 -35
-130 -55 -187 -40 -120 -40 -121 -19 -121 20 0 114 -40 134 -56 20 -17 101
-46 108 -39 3 3 -5 16 -17 29 -21 23 -22 27 -11 105 6 45 9 85 6 90 -10 16 49
34 124 37 41 3 97 9 123 14 26 6 93 10 148 10 90 0 103 -3 142 -26 23 -15 54
-38 70 -52 15 -14 46 -35 70 -47 39 -20 42 -24 38 -56 l-3 -34 23 20 c13 10
48 42 77 69 28 28 52 46 52 40 0 -19 -62 -109 -107 -155 -42 -44 -44 -48 -41
-99 l3 -53 190 204 c267 287 306 324 374 349 116 44 264 31 408 -35 l53 -24 1
22 c1 12 5 -13 9 -55 9 -91 42 -166 94 -217 l35 -34 29 28 30 28 -28 41 c-38
58 -50 100 -49 170 l2 61 7 -65 c8 -75 21 -110 57 -162 22 -32 30 -37 52 -31
41 9 42 12 22 51 -22 44 -42 130 -40 175 1 20 5 10 10 -27 5 -33 22 -87 37
-121 28 -59 30 -61 82 -73 31 -7 57 -9 62 -4 5 5 2 63 -7 135 -8 69 -15 129
-14 134 2 20 29 -119 35 -185 5 -53 10 -72 20 -68 7 3 28 8 47 11 33 6 35 10
48 68 15 71 17 113 7 177 l-6 45 13 -40 c18 -54 18 -143 0 -195 -18 -50 -18
-50 -6 -50 5 0 14 15 20 33 6 18 26 50 43 72 18 21 33 45 34 53 3 16 -11 105
-20 137 -4 11 0 7 8 -10 8 -16 18 -52 21 -78 4 -26 10 -47 14 -45 70 31 91 45
92 63 1 18 2 18 6 2 3 -11 10 -16 20 -13 8 3 40 6 71 6 31 0 53 4 47 8 -5 4
-11 43 -11 87 -2 92 -33 228 -76 328 -39 91 -188 342 -231 389 -39 42 -62 114
-51 162 11 55 74 154 126 201 28 25 87 71 132 102 131 92 265 202 280 231 22
43 29 95 17 138 -13 49 -89 126 -151 153 -192 84 -416 88 -730 14 l-25 -5 30
-11 c17 -5 40 -18 51 -29 21 -18 24 -19 53 -4 17 9 31 21 31 26 0 6 12 10 26
10 14 0 64 8 111 17 169 33 328 -16 459 -140 38 -36 67 -68 64 -70 -3 -3 -39
15 -80 40 -69 43 -157 83 -180 83 -6 0 -10 -38 -10 -92 -1 -170 -40 -213 -195
-213 -155 0 -195 39 -195 193 0 85 -1 92 -20 92 -19 0 -20 -7 -20 -140 l0
-140 -65 0 -65 0 0 111 c0 108 -1 111 -21 106 -20 -5 -20 -5 -3 15 18 19 18
20 -1 34 -36 27 -79 15 -100 -27 -10 -19 -15 -60 -15 -134 l0 -105 -60 0 -60
0 0 183 0 182 -73 23 c-103 32 -139 60 -176 133 -56 112 -41 202 58 348 l40
59 42 -15 c109 -37 279 -34 427 7 114 32 180 71 229 133 12 16 24 23 28 17 10
-17 23 -11 18 8 -2 11 3 36 11 57 9 20 16 53 16 73 0 22 11 53 30 82 16 25 36
65 45 89 19 55 21 161 2 161 -9 0 -17 -27 -25 -80 -19 -135 -47 -167 -160
-181 -37 -4 -78 -11 -92 -15 -23 -7 -22 -5 12 37 48 58 79 120 85 168 4 30 9
38 20 34 13 -5 13 -2 4 15 -6 11 -11 32 -11 47 0 14 -8 40 -17 58 -13 24 -18
58 -18 132 -1 88 -4 107 -29 158 -25 51 -43 67 -58 51 -3 -3 5 -28 19 -56 30
-62 40 -146 24 -186 -7 -15 -26 -36 -42 -46 -48 -28 -129 -104 -117 -108 7 -3
-3 -28 -26 -66 -21 -34 -39 -62 -40 -62 -1 0 9 33 22 73 33 94 37 259 9 352
-24 78 -79 158 -136 198 -44 31 -50 32 -156 34 -94 2 -123 -1 -195 -23z m178
-45 c28 -5 57 -16 66 -22 13 -10 0 -12 -66 -13 -106 -1 -195 -29 -293 -95 -90
-61 -228 -195 -319 -311 -37 -49 -70 -88 -72 -88 -11 0 39 109 81 175 165 265
394 399 603 354z m-2076 -614 c-48 -55 -67 -122 -58 -201 5 -42 106 -374 160
-529 19 -53 -55 55 -101 147 -68 138 -115 278 -121 360 -8 107 32 203 103 248
51 33 59 22 17 -25z m2528 -169 c0 -2 -12 -12 -27 -21 l-28 -18 19 21 c17 20
36 29 36 18z m-950 -806 l0 -70 40 0 40 0 0 -50 0 -50 -40 0 -40 0 0 -67 c0
-77 8 -95 41 -97 17 -1 26 -11 37 -44 18 -54 10 -63 -56 -70 -33 -3 -59 1 -80
12 -49 25 -62 61 -62 170 l0 95 -27 3 c-26 3 -28 7 -31 51 -3 46 -3 47 27 47
l31 0 0 70 0 70 60 0 60 0 0 -70z m333 -79 c29 -15 37 -16 37 -5 0 11 16 14
65 14 l65 0 0 -185 0 -185 -60 0 c-53 0 -60 2 -60 19 0 19 -2 19 -42 -4 -90
-51 -194 -17 -246 80 -20 39 -20 141 0 180 20 38 65 81 98 94 40 16 103 12
143 -8z m479 -458 c23 -20 24 -80 1 -105 -20 -23 -80 -24 -105 -1 -23 20 -24
80 -1 105 20 23 80 24 105 1z m-727 -213 c47 -24 45 -24 45 -5 0 12 13 15 60
15 l60 0 0 -220 c0 -242 -3 -255 -60 -304 -88 -73 -282 -54 -334 35 l-17 28
53 27 c34 17 53 23 56 15 6 -18 58 -41 92 -41 40 0 90 47 90 84 0 30 1 30 -36
11 -63 -33 -177 -7 -222 49 -76 97 -45 253 60 305 54 26 102 27 153 1z m472 5
c21 -9 46 -23 57 -33 26 -24 56 -91 56 -129 l0 -33 -130 0 c-122 0 -130 -1
-130 -19 0 -26 46 -61 79 -61 14 0 41 9 59 20 l33 20 39 -20 c22 -11 40 -24
40 -29 0 -5 -16 -23 -35 -39 -83 -74 -221 -67 -297 14 -34 37 -48 74 -48 129
0 55 14 92 48 129 57 61 154 82 229 51z m623 -1 c4 -5 -3 -33 -16 -62 -21 -47
-25 -52 -43 -43 -33 18 -70 12 -96 -14 -24 -23 -25 -31 -25 -135 l0 -110 -65
0 -65 0 0 185 0 185 65 0 c63 0 65 -1 65 -25 l0 -26 23 22 c12 11 31 25 42 30
23 10 103 5 115 -7z m-360 -224 c0 -244 -5 -275 -48 -314 -12 -10 -41 -21 -65
-23 -51 -6 -121 13 -113 30 3 7 10 29 17 50 10 31 17 37 41 37 21 0 31 6 38
26 6 14 10 115 10 225 l0 199 60 0 60 0 0 -230z m451 -258 c59 -65 122 -190
149 -297 20 -77 39 -255 27 -255 -18 0 -68 123 -96 234 -37 148 -80 249 -147
343 l-47 66 32 -19 c18 -10 55 -43 82 -72z m-1026 -482 c-3 -5 -13 -10 -22
-10 -9 0 -76 -59 -150 -131 -73 -73 -136 -129 -139 -126 -8 8 64 111 122 176
29 32 69 64 99 77 51 24 101 32 90 14z m924 -85 c0 -5 -6 1 -14 15 -8 14 -14
30 -14 35 0 6 6 -1 14 -15 8 -14 14 -29 14 -35z m79 30 c-3 -3 -9 2 -12 12 -6
14 -5 15 5 6 7 -7 10 -15 7 -18z m-2387 -101 c-11 -44 -29 -104 -40 -134 l-20
-55 0 55 c-1 30 4 73 10 95 12 43 58 129 65 122 3 -3 -4 -40 -15 -83z m2526
34 c-3 -7 -5 -2 -5 12 0 14 2 19 5 13 2 -7 2 -19 0 -25z m-370 0 c-3 -8 -6 -5
-6 6 -1 11 2 17 5 13 3 -3 4 -12 1 -19z"/>
<path d="M3125 2835 c-53 -53 -16 -145 58 -145 75 0 110 97 53 146 -36 31 -80
31 -111 -1z"/>
<path d="M2879 2161 c-32 -33 -36 -58 -14 -100 39 -76 155 -43 155 44 0 79
-84 112 -141 56z"/>
<path d="M3333 2208 c-21 -10 -38 -36 -29 -45 2 -2 35 -3 72 -1 l69 3 -27 28
c-29 29 -49 32 -85 15z"/>
<path d="M1385 3224 c-16 -2 -70 -9 -120 -15 -116 -14 -298 -67 -407 -117
-230 -106 -413 -278 -499 -468 -188 -414 87 -875 631 -1057 320 -108 654 -112
975 -12 440 137 725 451 725 800 0 406 -391 762 -935 850 -92 15 -316 27 -370
19z m271 -204 c23 -12 63 -43 88 -70 46 -49 48 -50 75 -36 37 19 215 10 237
-12 12 -12 14 -30 8 -94 l-7 -79 35 6 c107 20 236 -170 204 -299 -3 -13 -20
-38 -37 -55 l-31 -31 32 0 c44 0 69 -16 86 -55 31 -74 7 -208 -47 -270 -52
-59 -143 -71 -225 -28 -54 28 -77 63 -82 126 -3 45 -7 54 -21 50 -12 -3 -20 6
-29 30 -14 38 -60 67 -106 67 -50 0 -29 -65 39 -120 24 -19 44 -41 44 -49 1
-7 34 -46 75 -85 41 -39 78 -82 81 -96 8 -32 -26 -85 -75 -118 -31 -21 -43
-23 -105 -19 -71 5 -195 42 -240 71 -35 23 -31 53 17 127 79 122 98 159 84
159 -8 0 -21 3 -30 6 -10 4 -16 1 -16 -9 0 -16 -36 -47 -53 -47 -5 0 -7 7 -3
15 7 19 10 19 -60 -10 -34 -14 -50 -24 -38 -25 12 0 32 -8 45 -18 l22 -19 -21
-90 c-30 -130 -43 -157 -86 -177 -82 -39 -206 -29 -227 17 -7 16 -2 48 14 114
28 107 43 134 89 156 l33 17 -57 0 c-47 0 -58 -3 -63 -19 -6 -21 -95 -57 -118
-48 -9 3 -12 -18 -12 -79 0 -68 -4 -87 -21 -111 -44 -59 -123 -39 -246 65 -48
40 -88 77 -88 82 0 29 198 140 250 140 22 0 29 6 38 39 7 21 19 44 27 51 22
18 19 28 -15 45 -37 19 -43 19 -36 -3 5 -15 -1 -18 -35 -19 -48 -2 -85 -24
-107 -64 -14 -23 -24 -29 -51 -29 -78 0 -211 100 -211 159 0 15 7 34 15 41 20
16 155 51 223 57 28 3 52 8 52 13 0 4 -28 10 -62 14 -84 8 -142 38 -163 82
-21 45 -14 64 46 118 66 59 149 106 188 106 26 0 31 4 31 24 0 15 19 47 50 82
28 31 50 60 50 64 0 4 24 18 52 30 64 27 156 30 211 7 34 -15 37 -15 37 1 0
49 22 94 53 107 49 22 143 19 193 -5z"/>
<path d="M1425 2783 c-44 -9 -76 -27 -87 -46 -9 -17 -6 -24 15 -43 15 -12 51
-28 80 -35 47 -10 62 -9 111 6 54 17 57 20 51 44 -15 61 -88 92 -170 74z m78
-50 c36 -7 16 -23 -29 -23 -34 0 -65 24 -42 33 7 3 20 3 28 1 8 -3 28 -8 43
-11z"/>
<path d="M1790 2723 c-26 -27 -49 -54 -51 -61 -5 -16 -69 -31 -134 -32 l-50 0
40 -21 c74 -39 173 -126 173 -151 0 -21 -9 -26 -72 -41 -39 -9 -86 -17 -103
-17 -41 0 -42 -10 -4 -33 36 -21 141 -23 179 -3 32 17 90 76 76 77 -5 1 -21 0
-36 -1 -35 -2 -35 1 3 29 l31 23 48 -41 c27 -23 51 -41 54 -41 14 0 4 32 -22
77 -16 26 -36 68 -46 93 -36 93 -66 113 -66 44 0 -19 -4 -34 -10 -34 -22 0 -8
49 25 91 34 43 46 89 24 89 -7 0 -33 -21 -59 -47z"/>
<path d="M1281 2542 c-58 -12 -81 -13 -105 -4 -34 13 -41 9 -50 -30 -6 -26 -4
-28 28 -28 19 0 38 5 42 11 7 12 103 7 154 -7 14 -4 22 -4 19 0 -4 4 -3 23 1
42 6 23 4 34 -4 33 -6 -1 -44 -9 -85 -17z"/>
<path d="M1338 2441 c-44 -28 -68 -56 -68 -80 0 -5 25 -13 55 -16 30 -4 55
-11 55 -15 0 -13 -59 -59 -117 -92 -53 -30 -93 -73 -93 -100 0 -25 13 -29 32
-11 11 9 24 18 31 19 7 1 41 16 77 33 56 27 70 40 103 91 35 57 39 60 77 60
48 0 55 20 8 21 -18 0 -27 3 -20 6 14 6 82 92 82 104 0 5 -40 9 -88 9 -80 0
-92 -3 -134 -29z m166 -6 c-27 -20 -51 -20 -34 0 7 8 22 15 33 15 20 0 20 0 1
-15z"/>
<path d="M1206 2429 c-14 -11 -31 -38 -37 -59 -10 -33 -9 -47 5 -85 24 -61 44
-60 39 3 -4 32 1 64 15 100 23 59 16 71 -22 41z"/>
<path d="M1085 2395 c-16 -8 -43 -14 -59 -15 l-29 0 20 -22 c11 -13 25 -32 31
-43 7 -12 12 -15 12 -6 0 8 10 28 23 45 26 34 40 56 35 55 -2 0 -16 -7 -33
-14z"/>
<path d="M2168 2337 c-31 -9 -38 -15 -38 -36 l0 -25 28 26 c15 14 36 30 47 36
24 14 13 13 -37 -1z"/>
<path d="M3560 2938 c0 -21 0 -21 23 -2 12 10 24 20 26 21 2 2 -8 3 -22 3 -21
0 -27 -5 -27 -22z"/>
<path d="M3992 2815 c4 -109 15 -129 74 -129 54 0 64 21 64 131 l0 93 -71 0
-71 0 4 -95z"/>
<path d="M4613 1089 c20 -17 49 -52 65 -77 23 -41 27 -58 27 -127 0 -96 -22
-152 -84 -214 -52 -52 -102 -77 -183 -92 -106 -20 -218 11 -289 78 -15 13 -29
20 -33 15 -9 -14 72 -84 129 -112 32 -16 73 -26 115 -28 211 -12 380 150 368
353 -3 44 -13 85 -26 110 -19 38 -102 125 -119 125 -4 0 9 -14 30 -31z"/>
<path d="M4383 1083 c9 -2 23 -2 30 0 6 3 -1 5 -18 5 -16 0 -22 -2 -12 -5z"/>
<path d="M4378 1003 c12 -2 32 -2 45 0 12 2 2 4 -23 4 -25 0 -35 -2 -22 -4z"/>
<path d="M3980 881 l-25 -7 26 -17 c15 -10 37 -39 50 -65 13 -25 30 -53 37
-60 6 -7 12 -18 12 -23 0 -6 4 -7 10 -4 6 4 4 17 -5 36 -9 16 -19 55 -23 87
-6 52 -9 57 -32 59 -14 1 -36 -2 -50 -6z"/>
<path d="M3772 873 c-6 -2 -10 -9 -7 -14 4 -5 -1 -6 -9 -3 -20 8 -56 -31 -55
-58 1 -17 3 -18 6 -6 2 9 10 15 17 12 25 -10 115 22 135 48 l20 25 -47 1 c-26
0 -53 -2 -60 -5z"/>
<path d="M3900 835 c-10 -12 -9 -16 6 -21 11 -3 29 -10 42 -15 34 -14 35 -12
12 21 -24 33 -41 38 -60 15z"/>
<path d="M3850 770 c0 -5 18 -13 40 -16 22 -4 38 -10 35 -14 -2 -4 12 -14 32
-24 l36 -17 -15 22 c-27 41 -128 79 -128 49z"/>
<path d="M1882 582 c3 -55 0 -63 -26 -91 l-29 -30 26 -12 c22 -10 38 -8 96 10
38 12 92 24 121 28 39 4 62 14 84 34 l31 28 -32 -11 c-29 -11 -39 -9 -85 14
-29 15 -78 36 -108 48 -30 12 -61 26 -68 32 -10 8 -12 -2 -10 -50z"/>
<path d="M2270 513 l-35 -31 27 -12 c24 -12 31 -9 83 34 l57 46 -48 -2 c-39
-2 -56 -10 -84 -35z"/>
<path d="M4248 533 c7 -3 16 -2 19 1 4 3 -2 6 -13 5 -11 0 -14 -3 -6 -6z"/>
<path d="M1722 411 c-67 -26 -68 -34 -13 -64 35 -19 63 -27 100 -27 28 0 51 4
51 9 0 5 3 16 6 24 3 10 -2 18 -15 22 -11 3 -35 16 -53 29 -33 22 -36 23 -76
7z"/>
</g>
</svg>
