<?xml version="1.0" standalone="no"?><svg xmlns="http://www.w3.org/2000/svg" viewBox="0 0 1440 320"><path fill="#863316" fill-opacity="1" d="M0,320L16,288C32,256,64,192,96,176C128,160,160,192,192,176C224,160,256,96,288,58.7C320,21,352,11,384,53.3C416,96,448,192,480,197.3C512,203,544,117,576,96C608,75,640,117,672,112C704,107,736,53,768,64C800,75,832,149,864,192C896,235,928,245,960,240C992,235,1024,213,1056,192C1088,171,1120,149,1152,117.3C1184,85,1216,43,1248,58.7C1280,75,1312,149,1344,186.7C1376,224,1408,224,1424,224L1440,224L1440,0L1424,0C1408,0,1376,0,1344,0C1312,0,1280,0,1248,0C1216,0,1184,0,1152,0C1120,0,1088,0,1056,0C1024,0,992,0,960,0C928,0,896,0,864,0C832,0,800,0,768,0C736,0,704,0,672,0C640,0,608,0,576,0C544,0,512,0,480,0C448,0,416,0,384,0C352,0,320,0,288,0C256,0,224,0,192,0C160,0,128,0,96,0C64,0,32,0,16,0L0,0Z"></path></svg>