<?xml version="1.0" standalone="no"?><svg xmlns="http://www.w3.org/2000/svg" viewBox="0 0 1440 320"><path fill="#863316" fill-opacity="1" d="M0,160L15,160C30,160,60,160,90,144C120,128,150,96,180,96C210,96,240,128,270,144C300,160,330,160,360,138.7C390,117,420,75,450,85.3C480,96,510,160,540,186.7C570,213,600,203,630,197.3C660,192,690,192,720,181.3C750,171,780,149,810,154.7C840,160,870,192,900,202.7C930,213,960,203,990,170.7C1020,139,1050,85,1080,64C1110,43,1140,53,1170,48C1200,43,1230,21,1260,16C1290,11,1320,21,1350,42.7C1380,64,1410,96,1425,112L1440,128L1440,320L1425,320C1410,320,1380,320,1350,320C1320,320,1290,320,1260,320C1230,320,1200,320,1170,320C1140,320,1110,320,1080,320C1050,320,1020,320,990,320C960,320,930,320,900,320C870,320,840,320,810,320C780,320,750,320,720,320C690,320,660,320,630,320C600,320,570,320,540,320C510,320,480,320,450,320C420,320,390,320,360,320C330,320,300,320,270,320C240,320,210,320,180,320C150,320,120,320,90,320C60,320,30,320,15,320L0,320Z"></path></svg>